<svg viewBox="0 0 109 64" fill="none" xmlns="http://www.w3.org/2000/svg"><path d="M109.719 74.895S79.489 5.722 23.177 6.982L.281 74.895h109.438z" fill="#B9DAD0"/><g filter="url(#filter0_di)"><path d="M77.46 74.894V9.218a8.3 8.3 0 00-8.302-8.3h-30.12a8.3 8.3 0 00-8.301 8.3v65.676h4.743V9.218a3.557 3.557 0 013.558-3.557h6.2l1.14 1.996c.253.443.724.717 1.235.717h13.15c.522 0 1.002-.286 1.251-.745l1.069-1.968h6.075a3.557 3.557 0 013.558 3.557v65.676h4.743z" fill="url(#paint0_linear)"/></g><path d="M35.48 74.894h37.236V9.218a3.557 3.557 0 00-3.558-3.557h-6.075l-1.07 1.968a1.423 1.423 0 01-1.25.745h-13.15c-.51 0-.982-.274-1.236-.717l-1.14-1.996h-6.2a3.557 3.557 0 00-3.557 3.557v65.676z" fill="#fff"/><path fill="#F3F2F1" d="M43.1 14.242h22.118v9.86H43.1z"/><g filter="url(#filter1_di)"><path d="M38.57 28.366h48.233v26.915H38.57V28.366z" fill="#F39E78"/></g><path fill="#F3F2F1" d="M43.1 60.743h22.118V75H43.1z"/><path d="M54.963 37.258H43.081v2.768h11.882v-2.768zM60.5 41.873H43.08v2.769H60.5v-2.77z" fill="#fff"/><path d="M73.517 32.764c-3.542 0-6.414 2.8-6.414 6.102 0 1.214.499 2.363.753 2.805 1.693 3.499 5.666 9.237 5.666 9.237s3.972-5.738 5.666-9.237c.254-.442.71-1.591.752-2.805.1-3.298-2.88-6.102-6.422-6.102z" fill="url(#paint1_linear)"/><circle cx="73.523" cy="38.705" r="2.733" fill="#fff"/><defs><linearGradient id="paint0_linear" x1="54.402" y1="-2.72" x2="74.343" y2="94.243" gradientUnits="userSpaceOnUse"><stop stop-color="#237EA3"/><stop offset="1" stop-color="#1D465C"/></linearGradient><linearGradient id="paint1_linear" x1="71.79" y1="61.351" x2="83.746" y2="43.416" gradientUnits="userSpaceOnUse"><stop stop-color="#74234E"/><stop offset="1" stop-color="#9D2B6B"/></linearGradient><filter id="filter0_di" x="30.737" y=".918" width="47.722" height="74.976" filterUnits="userSpaceOnUse" color-interpolation-filters="sRGB"><feFlood flood-opacity="0" result="BackgroundImageFix"/><feColorMatrix in="SourceAlpha" values="0 0 0 0 0 0 0 0 0 0 0 0 0 0 0 0 0 0 127 0"/><feOffset dx=".5" dy=".5"/><feGaussianBlur stdDeviation=".25"/><feColorMatrix values="0 0 0 0 0 0 0 0 0 0 0 0 0 0 0 0 0 0 0.3 0"/><feBlend in2="BackgroundImageFix" result="effect1_dropShadow"/><feBlend in="SourceGraphic" in2="effect1_dropShadow" result="shape"/><feColorMatrix in="SourceAlpha" values="0 0 0 0 0 0 0 0 0 0 0 0 0 0 0 0 0 0 127 0" result="hardAlpha"/><feOffset dx="1" dy="1"/><feGaussianBlur stdDeviation=".5"/><feComposite in2="hardAlpha" operator="arithmetic" k2="-1" k3="1"/><feColorMatrix values="0 0 0 0 0 0 0 0 0 0 0 0 0 0 0 0 0 0 0.3 0"/><feBlend in2="shape" result="effect2_innerShadow"/></filter><filter id="filter1_di" x="38.57" y="28.366" width="49.233" height="27.915" filterUnits="userSpaceOnUse" color-interpolation-filters="sRGB"><feFlood flood-opacity="0" result="BackgroundImageFix"/><feColorMatrix in="SourceAlpha" values="0 0 0 0 0 0 0 0 0 0 0 0 0 0 0 0 0 0 127 0"/><feOffset dx=".5" dy=".5"/><feGaussianBlur stdDeviation=".25"/><feColorMatrix values="0 0 0 0 0 0 0 0 0 0 0 0 0 0 0 0 0 0 0.3 0"/><feBlend in2="BackgroundImageFix" result="effect1_dropShadow"/><feBlend in="SourceGraphic" in2="effect1_dropShadow" result="shape"/><feColorMatrix in="SourceAlpha" values="0 0 0 0 0 0 0 0 0 0 0 0 0 0 0 0 0 0 127 0" result="hardAlpha"/><feOffset dx=".5" dy=".5"/><feGaussianBlur stdDeviation=".25"/><feComposite in2="hardAlpha" operator="arithmetic" k2="-1" k3="1"/><feColorMatrix values="0 0 0 0 0 0 0 0 0 0 0 0 0 0 0 0 0 0 0.3 0"/><feBlend in2="shape" result="effect2_innerShadow"/></filter></defs></svg>