<svg viewBox="0 0 264 64" fill="none" xmlns="http://www.w3.org/2000/svg">
<path d="M21.7823 14.5455V21.9318H0.431108V14.5455H21.7823ZM5.27841 6.05114H15.1115V39.1051C15.1115 40.013 15.25 40.7209 15.527 41.2287C15.804 41.7211 16.1887 42.0674 16.6811 42.2674C17.1889 42.4674 17.7737 42.5675 18.4354 42.5675C18.897 42.5675 19.3587 42.529 19.8203 42.4521C20.282 42.3597 20.6359 42.2905 20.8821 42.2443L22.4286 49.5614C21.9362 49.7153 21.2437 49.8923 20.3512 50.0923C19.4587 50.3078 18.3738 50.4386 17.0966 50.4847C14.7268 50.5771 12.6494 50.2616 10.8643 49.5384C9.0947 48.8151 7.71745 47.6918 6.7326 46.1683C5.74775 44.6449 5.26302 42.7214 5.27841 40.3977V6.05114ZM38.2978 50.6694C36.0357 50.6694 34.0198 50.277 32.2502 49.4922C30.4805 48.692 29.0802 47.5148 28.0492 45.9606C27.0336 44.391 26.5257 42.4367 26.5257 40.0977C26.5257 38.128 26.8874 36.4737 27.6106 35.1349C28.3339 33.7962 29.3187 32.719 30.5652 31.9034C31.8116 31.0878 33.2273 30.4723 34.8123 30.0568C36.4127 29.6413 38.09 29.349 39.8443 29.1797C41.9063 28.9643 43.5682 28.7642 44.8301 28.5795C46.0919 28.3795 47.0075 28.0871 47.5769 27.7024C48.1462 27.3177 48.4309 26.7483 48.4309 25.9943V25.8558C48.4309 24.3939 47.9693 23.2629 47.046 22.4627C46.1381 21.6625 44.8455 21.2624 43.1681 21.2624C41.3985 21.2624 39.9905 21.6548 38.9441 22.4396C37.8977 23.209 37.2052 24.1785 36.8667 25.348L27.7722 24.6094C28.2338 22.455 29.1417 20.593 30.4959 19.0234C31.8501 17.4384 33.5967 16.2228 35.7356 15.3764C37.89 14.5147 40.3829 14.0838 43.2143 14.0838C45.184 14.0838 47.0691 14.3146 48.8695 14.7763C50.6853 15.2379 52.2934 15.9535 53.6937 16.9229C55.1094 17.8924 56.2251 19.1388 57.0407 20.6623C57.8562 22.1703 58.264 23.9785 58.264 26.0866V50H48.9387V45.0835H48.6618C48.0924 46.1914 47.3307 47.1686 46.3766 48.0149C45.4225 48.8459 44.2761 49.4999 42.9373 49.9769C41.5985 50.4386 40.052 50.6694 38.2978 50.6694ZM41.1138 43.8832C42.5603 43.8832 43.8375 43.5985 44.9455 43.0291C46.0534 42.4444 46.9229 41.6596 47.5538 40.6747C48.1847 39.6899 48.5002 38.5742 48.5002 37.3278V33.5653C48.1924 33.7654 47.7692 33.95 47.2306 34.1193C46.7074 34.2732 46.115 34.4194 45.4533 34.5579C44.7916 34.681 44.1299 34.7964 43.4682 34.9041C42.8065 34.9964 42.2064 35.0811 41.6678 35.158C40.5137 35.3273 39.5057 35.5966 38.644 35.9659C37.7823 36.3352 37.1129 36.8353 36.6358 37.4663C36.1588 38.0818 35.9203 38.8512 35.9203 39.7745C35.9203 41.1133 36.405 42.1366 37.3745 42.8445C38.3593 43.5369 39.6058 43.8832 41.1138 43.8832ZM75.7259 2.72727V50H65.8928V2.72727H75.7259ZM99.7604 50.6925C96.1134 50.6925 92.9742 49.9538 90.3428 48.4766C87.7268 46.9839 85.7109 44.8757 84.2952 42.152C82.8795 39.4129 82.1716 36.1736 82.1716 32.4343C82.1716 28.7873 82.8795 25.5865 84.2952 22.832C85.7109 20.0775 87.7037 17.9309 90.2735 16.392C92.8588 14.8532 95.8902 14.0838 99.368 14.0838C101.707 14.0838 103.884 14.4608 105.9 15.2148C107.932 15.9535 109.701 17.0691 111.209 18.5618C112.733 20.0545 113.918 21.9318 114.764 24.1939C115.61 26.4406 116.033 29.072 116.033 32.0881V34.7887H86.0956V28.695H106.777C106.777 27.2792 106.47 26.0251 105.854 24.9325C105.239 23.84 104.385 22.9859 103.292 22.3704C102.215 21.7395 100.961 21.424 99.5296 21.424C98.0369 21.424 96.7135 21.7702 95.5594 22.4627C94.4207 23.1398 93.5281 24.0554 92.8818 25.2095C92.2355 26.3482 91.9047 27.6178 91.8893 29.0181V34.8118C91.8893 36.5661 92.2124 38.0818 92.8588 39.359C93.5204 40.6362 94.4514 41.6211 95.6517 42.3136C96.852 43.006 98.2754 43.3523 99.922 43.3523C101.015 43.3523 102.015 43.1984 102.923 42.8906C103.831 42.5829 104.608 42.1212 105.254 41.5057C105.9 40.8902 106.393 40.1361 106.731 39.2436L115.826 39.8438C115.364 42.0289 114.418 43.937 112.987 45.5682C111.571 47.1839 109.74 48.4458 107.493 49.3537C105.262 50.2462 102.684 50.6925 99.7604 50.6925ZM132.283 29.5028V50H122.45V14.5455H131.822V20.8008H132.237C133.022 18.7388 134.338 17.1076 136.184 15.9073C138.031 14.6916 140.27 14.0838 142.901 14.0838C145.363 14.0838 147.51 14.6224 149.341 15.6996C151.173 16.7768 152.596 18.3156 153.612 20.316C154.627 22.3011 155.135 24.6709 155.135 27.4254V50H145.302V29.1797C145.317 27.0099 144.763 25.3172 143.64 24.1016C142.517 22.8705 140.97 22.255 139 22.255C137.677 22.255 136.508 22.5397 135.492 23.109C134.492 23.6784 133.707 24.5094 133.138 25.6019C132.584 26.6791 132.299 27.9794 132.283 29.5028ZM181.743 14.5455V21.9318H160.392V14.5455H181.743ZM165.239 6.05114H175.072V39.1051C175.072 40.013 175.211 40.7209 175.488 41.2287C175.765 41.7211 176.15 42.0674 176.642 42.2674C177.15 42.4674 177.735 42.5675 178.396 42.5675C178.858 42.5675 179.32 42.529 179.781 42.4521C180.243 42.3597 180.597 42.2905 180.843 42.2443L182.39 49.5614C181.897 49.7153 181.205 49.8923 180.312 50.0923C179.42 50.3078 178.335 50.4386 177.058 50.4847C174.688 50.5771 172.61 50.2616 170.825 49.5384C169.056 48.8151 167.678 47.6918 166.694 46.1683C165.709 44.6449 165.224 42.7214 165.239 40.3977V6.05114ZM188.149 50V14.5455H197.982V50H188.149ZM193.088 9.97514C191.626 9.97514 190.372 9.49041 189.326 8.52095C188.295 7.5361 187.779 6.3589 187.779 4.98934C187.779 3.63518 188.295 2.47337 189.326 1.50391C190.372 0.519056 191.626 0.0266311 193.088 0.0266311C194.55 0.0266311 195.797 0.519056 196.828 1.50391C197.874 2.47337 198.397 3.63518 198.397 4.98934C198.397 6.3589 197.874 7.5361 196.828 8.52095C195.797 9.49041 194.55 9.97514 193.088 9.97514ZM224.925 14.5455V21.9318H203.043V14.5455H224.925ZM208.051 50V11.9833C208.051 9.41347 208.552 7.28219 209.552 5.58949C210.567 3.89678 211.952 2.62725 213.707 1.78089C215.461 0.934538 217.454 0.51136 219.685 0.51136C221.193 0.51136 222.57 0.626773 223.817 0.857599C225.079 1.08842 226.017 1.29616 226.633 1.48082L224.878 8.86719C224.494 8.74408 224.017 8.62867 223.447 8.52095C222.893 8.41323 222.324 8.35938 221.739 8.35938C220.293 8.35938 219.285 8.69792 218.715 9.375C218.146 10.0367 217.861 10.9677 217.861 12.168V50H208.051ZM237.002 63.2955C235.756 63.2955 234.587 63.1954 233.494 62.9954C232.417 62.8107 231.524 62.5722 230.816 62.2798L233.032 54.9396C234.186 55.2936 235.225 55.4859 236.148 55.5167C237.087 55.5475 237.895 55.332 238.572 54.8704C239.265 54.4087 239.826 53.6239 240.257 52.516L240.834 51.0156L228.116 14.5455H238.457L245.797 40.5824H246.166L253.576 14.5455H263.986L250.206 53.8317C249.544 55.7398 248.644 57.4018 247.505 58.8175C246.382 60.2486 244.958 61.3488 243.235 62.1183C241.511 62.9031 239.434 63.2955 237.002 63.2955Z" fill="#519DD0"/>
</svg>
